<svg xmlns="http://www.w3.org/2000/svg" fill="currentColor" width="48" height="48" viewBox="0 0 48 48"><path d="M24 2.5C12.126 2.5 2.5 12.126 2.5 24v20A1.5 1.5 0 0 0 4 45.5h20c11.874 0 21.5-9.626 21.5-21.5S35.874 2.5 24 2.5Zm0 3c10.218 0 18.5 8.282 18.5 18.5l-.003.336C42.317 34.4 34.105 42.5 24 42.5H5.5V24C5.5 13.782 13.782 5.5 24 5.5Zm8 11a1.5 1.5 0 0 1 .144 2.993L32 19.5H14a1.5 1.5 0 0 1-.144-2.993L14 16.5h18Zm1.5 9.5a1.5 1.5 0 0 0-1.5-1.5H14l-.144.007A1.5 1.5 0 0 0 14 27.5h18l.144-.007A1.5 1.5 0 0 0 33.5 26Zm-8 8a1.5 1.5 0 0 0-1.5-1.5H14l-.144.007A1.5 1.5 0 0 0 14 35.5h10l.144-.007A1.5 1.5 0 0 0 25.5 34Z" fill-rule="evenodd"/></svg>