<svg xmlns="http://www.w3.org/2000/svg" fill="currentColor" width="48" height="48" viewBox="0 0 48 48"><path d="M24.697 2.01 24 1.998A21.947 21.947 0 0 0 8.442 8.446 21.935 21.935 0 0 0 2 24.003a21.934 21.934 0 0 0 6.446 15.555A21.935 21.935 0 0 0 24.003 46a21.934 21.934 0 0 0 15.555-6.446A21.934 21.934 0 0 0 46 23.997a21.935 21.935 0 0 0-6.446-15.555A21.934 21.934 0 0 0 24.697 2.01ZM32 18.625a8 8 0 0 0-16 0 2 2 0 0 0 4 0 4 4 0 1 1 4 4 2 2 0 0 0-2 2v4l.013.233A2 2 0 0 0 24 30.625l.233-.013A2 2 0 0 0 26 28.625V26.37l.31-.084A8.004 8.004 0 0 0 32 18.625Zm-8 19a2.5 2.5 0 1 0 0-5 2.5 2.5 0 0 0 0 5Z" fill-rule="evenodd"/></svg>