<svg xmlns="http://www.w3.org/2000/svg" fill="currentColor" width="48" height="48" viewBox="0 0 48 48"><path d="M5.58 6.816 23.589 1.56a1.5 1.5 0 0 1 .84 0l17.992 5.256a1.5 1.5 0 0 1 1.079 1.44v10.778a27.816 27.816 0 0 1-19.023 26.39 1.5 1.5 0 0 1-.948 0A27.82 27.82 0 0 1 4.5 19.028V8.256a1.5 1.5 0 0 1 1.08-1.44Zm19.863 7.99a1.5 1.5 0 0 0-2.993.144l-.001 6.5H15.95l-.144.007a1.5 1.5 0 0 0 .144 2.993h6.499l.001 6.5.007.145a1.5 1.5 0 0 0 2.993-.145l-.001-6.5h6.501l.144-.007a1.5 1.5 0 0 0-.144-2.993h-6.501l.001-6.5-.007-.144Z" fill-rule="evenodd"/></svg>